<svg width="30" height="30" viewBox="0 0 30 30" fill="none" xmlns="http://www.w3.org/2000/svg">
<path d="M25.2539 13.6318H22.8808C22.7461 13.6318 22.6172 13.6904 22.5263 13.793L16.1132 21.1846V4.6875C16.1132 4.55859 16.0078 4.45312 15.8789 4.45312H14.1211C13.9922 4.45312 13.8867 4.55859 13.8867 4.6875V21.1846L7.4736 13.793C7.38571 13.6904 7.2568 13.6318 7.11911 13.6318H4.74606C4.54684 13.6318 4.43844 13.8691 4.57028 14.0186L14.2939 25.2246C14.3818 25.326 14.4905 25.4073 14.6125 25.4631C14.7346 25.5188 14.8672 25.5476 15.0014 25.5476C15.1356 25.5476 15.2682 25.5188 15.3903 25.4631C15.5124 25.4073 15.6211 25.326 15.709 25.2246L25.4297 14.0186C25.5615 13.8662 25.4531 13.6318 25.2539 13.6318Z" fill="#588349"/>
</svg>
