<svg width="30" height="30" viewBox="0 0 30 30" fill="none" xmlns="http://www.w3.org/2000/svg">
<path d="M4.26772 15.9165L6.64075 15.9254C6.77552 15.9259 6.90464 15.8678 6.99584 15.7656L13.4364 8.39787L13.375 24.8948C13.3745 25.0237 13.4796 25.1296 13.6085 25.1301L15.3663 25.1366C15.4952 25.1371 15.6011 25.032 15.6016 24.9031L15.6629 8.40616L22.0485 15.8216C22.136 15.9244 22.2647 15.9835 22.4024 15.984L24.7754 15.9928C24.9746 15.9936 25.0839 15.7567 24.9526 15.6068L15.2707 4.36463C15.1832 4.2629 15.0749 4.18118 14.953 4.12499C14.8311 4.0688 14.6986 4.03946 14.5644 4.03896C14.4302 4.03846 14.2975 4.06682 14.1752 4.1221C14.053 4.17738 13.944 4.25829 13.8557 4.35937L4.09338 15.5292C3.96098 15.681 4.06851 15.9158 4.26772 15.9165Z" fill="#588349"/>
</svg>
