<svg width="36" height="36" viewBox="0 0 36 36" fill="none" xmlns="http://www.w3.org/2000/svg">
<path d="M18.0029 31.5614C14.3129 31.5614 13.8779 31.5419 12.4379 31.4789C11.315 31.442 10.2066 31.2138 9.16043 30.8039C8.2652 30.4555 7.4522 29.9248 6.77306 29.2454C6.09392 28.566 5.56348 27.7528 5.21543 26.8574C4.82139 25.8075 4.60886 24.6982 4.58693 23.5769C4.50293 22.1399 4.50293 21.6689 4.50293 18.0074C4.50293 14.3069 4.52243 13.8749 4.58693 12.4424C4.60934 11.3227 4.82186 10.215 5.21543 9.16645C5.56308 8.26995 6.09388 7.45581 6.77392 6.77603C7.45396 6.09624 8.2683 5.56576 9.16493 5.21845C10.2129 4.82275 11.3209 4.60966 12.4409 4.58845C13.8734 4.50745 14.3444 4.50745 18.0029 4.50745C21.7229 4.50745 22.1504 4.52695 23.5679 4.58845C24.6899 4.60945 25.8029 4.82245 26.8529 5.21845C27.7493 5.56616 28.5635 6.09679 29.2434 6.77652C29.9234 7.45625 30.4544 8.27018 30.8024 9.16645C31.2029 10.2314 31.4174 11.3564 31.4339 12.4919C31.5179 13.9289 31.5179 14.3984 31.5179 18.0584C31.5179 21.7184 31.4969 22.1984 31.4339 23.6189C31.4115 24.7412 31.1985 25.8515 30.8039 26.9024C30.455 27.7984 29.9236 28.6121 29.2434 29.2917C28.5632 29.9714 27.7492 30.5022 26.8529 30.8504C25.8029 31.2434 24.6944 31.4564 23.5739 31.4789C22.1414 31.5614 21.6719 31.5614 18.0029 31.5614V31.5614ZM17.9519 6.88195C14.2829 6.88195 13.9019 6.89995 12.4694 6.96445C11.6139 6.97563 10.7666 7.13342 9.96443 7.43095C9.37933 7.65522 8.84771 7.99961 8.40385 8.44192C7.96 8.88422 7.61375 9.41463 7.38743 9.99895C7.08743 10.8089 6.92993 11.6654 6.92093 12.5294C6.84143 13.9829 6.84143 14.3639 6.84143 18.0074C6.84143 21.6074 6.85493 22.0439 6.92093 23.4884C6.93443 24.3434 7.09193 25.1909 7.38743 25.9934C7.84643 27.1739 8.78243 28.1069 9.96593 28.5599C10.7671 28.8593 11.6142 29.0172 12.4694 29.0264C13.9214 29.1104 14.3039 29.1104 17.9519 29.1104C21.6314 29.1104 22.0124 29.0924 23.4329 29.0264C24.2885 29.0161 25.136 28.8583 25.9379 28.5599C26.5199 28.334 27.0485 27.9893 27.4901 27.548C27.9317 27.1067 28.2766 26.5783 28.5029 25.9964C28.8029 25.1864 28.9604 24.3284 28.9694 23.4644H28.9859C29.0504 22.0304 29.0504 21.6479 29.0504 17.9834C29.0504 14.3189 29.0339 13.9334 28.9694 12.5009C28.9559 11.6466 28.7981 10.8007 28.5029 9.99895C28.2771 9.41626 27.9324 8.887 27.4908 8.44487C27.0492 8.00274 26.5203 7.65743 25.9379 7.43095C25.1354 7.13095 24.2879 6.97495 23.4329 6.96445C21.9824 6.88195 21.6029 6.88195 17.9519 6.88195V6.88195ZM18.0029 24.9359C16.6313 24.9368 15.2902 24.5309 14.1493 23.7696C13.0083 23.0082 12.1188 21.9256 11.5932 20.6586C11.0676 19.3917 10.9296 17.9973 11.1965 16.6519C11.4635 15.3065 12.1234 14.0705 13.0929 13.1001C14.0624 12.1298 15.2978 11.4688 16.643 11.2007C17.9882 10.9326 19.3827 11.0694 20.6501 11.5939C21.9175 12.1184 23.0009 13.007 23.7632 14.1473C24.5256 15.2876 24.9326 16.6283 24.9329 17.9999C24.9306 19.8377 24.1999 21.5996 22.9009 22.8997C21.602 24.1998 19.8407 24.932 18.0029 24.9359V24.9359ZM18.0029 13.4969C17.1129 13.4969 16.2429 13.7609 15.5029 14.2553C14.7628 14.7498 14.1861 15.4526 13.8455 16.2749C13.5049 17.0971 13.4158 18.0019 13.5894 18.8749C13.763 19.7478 14.1916 20.5496 14.8209 21.1789C15.4503 21.8083 16.2521 22.2368 17.125 22.4105C17.9979 22.5841 18.9027 22.495 19.725 22.1544C20.5473 21.8138 21.2501 21.237 21.7445 20.497C22.239 19.757 22.5029 18.887 22.5029 17.9969C22.5002 16.8043 22.0252 15.6613 21.1818 14.818C20.3385 13.9747 19.1956 13.4997 18.0029 13.4969ZM25.2029 12.4274C24.9906 12.4267 24.7805 12.3841 24.5846 12.3021C24.3887 12.2201 24.2109 12.1003 24.0613 11.9496C23.7592 11.6452 23.5903 11.2333 23.5919 10.8044C23.5935 10.3756 23.7654 9.96493 24.0698 9.66281C24.3742 9.36069 24.7861 9.19185 25.2149 9.19345C25.6438 9.19504 26.0544 9.36693 26.3566 9.6713C26.6587 9.97567 26.8275 10.3876 26.8259 10.8164C26.8243 11.2453 26.6524 11.656 26.3481 11.9581C26.0437 12.2602 25.6318 12.429 25.2029 12.4274Z" fill="#588349"/>
</svg>
