<svg width="42" height="42" viewBox="0 0 42 42" fill="none" xmlns="http://www.w3.org/2000/svg">
<path d="M11.9201 6.5625C10.5009 6.56803 9.14138 7.13427 8.13782 8.13782C7.13427 9.14138 6.56803 10.5009 6.5625 11.9201V30.0799C6.56803 31.4991 7.13427 32.8586 8.13782 33.8622C9.14138 34.8657 10.5009 35.432 11.9201 35.4375H30.0799C31.4991 35.432 32.8586 34.8657 33.8622 33.8622C34.8657 32.8586 35.432 31.4991 35.4375 30.0799V11.9201C35.432 10.5009 34.8657 9.14138 33.8622 8.13782C32.8586 7.13427 31.4991 6.56803 30.0799 6.5625H11.9201ZM11.9201 9.1875H30.0799C31.6024 9.1875 32.8125 10.3976 32.8125 11.9201V30.0799C32.8125 31.6024 31.6024 32.8125 30.0799 32.8125H11.9201C11.5606 32.8148 11.2043 32.7456 10.8717 32.6091C10.5392 32.4726 10.237 32.2714 9.98282 32.0172C9.72862 31.763 9.52742 31.4608 9.39089 31.1283C9.25437 30.7957 9.18523 30.4394 9.1875 30.0799V11.9201C9.1875 10.3976 10.3976 9.1875 11.9201 9.1875ZM20.6312 16.0519C19.6665 16.0427 18.8462 16.0519 18.3855 16.2776C18.0771 16.4273 17.8421 16.7646 17.9852 16.7803C18.165 16.8066 18.5692 16.8932 18.7858 17.1859C19.0614 17.5599 19.0522 18.4065 19.0522 18.4065C19.0522 18.4065 19.2058 20.7336 18.6769 21.0263C18.3133 21.2258 17.8159 20.8202 16.7396 18.9696C16.191 18.0167 15.7763 16.9654 15.7763 16.9654C15.7763 16.9654 15.6975 16.7698 15.5558 16.6674C15.3812 16.5401 15.1397 16.4981 15.1397 16.4981L12.5711 16.5139C12.5711 16.5139 12.1866 16.5296 12.0488 16.6937C11.9201 16.8472 12.0382 17.1491 12.0382 17.1491C12.0382 17.1491 14.0477 21.8505 16.3236 24.2196C18.4104 26.3944 20.7795 26.25 20.7795 26.25H21.8558C21.8558 26.25 22.1786 26.2146 22.3427 26.04C22.4976 25.8759 22.4923 25.5675 22.4923 25.5675C22.4923 25.5675 22.4713 24.1277 23.1381 23.9124C23.7996 23.7064 24.6396 25.3063 25.5373 25.9219C26.2198 26.3878 26.7369 26.2854 26.7369 26.2854L29.1375 26.25C29.1375 26.25 30.3883 26.1726 29.7938 25.1829C29.7478 25.1068 29.4499 24.4558 28.0153 23.1223C26.5072 21.7284 26.7081 21.9542 28.5219 19.5392C29.6244 18.0679 30.0654 17.1701 29.9263 16.7803C29.7951 16.4167 28.9839 16.5139 28.9839 16.5139L26.2815 16.5296C26.2815 16.5296 26.082 16.5034 25.9337 16.5913C25.8317 16.667 25.7505 16.7673 25.6974 16.8827C25.6974 16.8827 25.2669 18.0206 24.6973 18.9906C23.4977 21.0302 23.0108 21.1431 22.8165 21.0157C22.3598 20.7178 22.4726 19.8253 22.4726 19.1953C22.4726 17.2108 22.7745 16.3905 21.8886 16.1766C21.5959 16.1044 21.3806 16.0584 20.6325 16.0519H20.6312Z" fill="#588349"/>
</svg>
