<svg width="28" height="28" viewBox="0 0 28 28" fill="none" xmlns="http://www.w3.org/2000/svg">
<path d="M14.0029 27.5614C10.3129 27.5614 9.87793 27.5419 8.43793 27.4789C7.31498 27.442 6.20657 27.2138 5.16043 26.8039C4.2652 26.4555 3.4522 25.9248 2.77306 25.2454C2.09392 24.566 1.56348 23.7528 1.21543 22.8574C0.821389 21.8075 0.608856 20.6982 0.58693 19.5769C0.50293 18.1399 0.50293 17.6689 0.50293 14.0074C0.50293 10.3069 0.52243 9.87494 0.58693 8.44244C0.609336 7.32273 0.821861 6.21496 1.21543 5.16645C1.56308 4.26995 2.09388 3.45581 2.77392 2.77603C3.45396 2.09624 4.2683 1.56576 5.16493 1.21845C6.2129 0.82275 7.32095 0.609663 8.44093 0.588446C9.87343 0.507446 10.3444 0.507446 14.0029 0.507446C17.7229 0.507446 18.1504 0.526946 19.5679 0.588446C20.6899 0.609446 21.8029 0.822446 22.8529 1.21845C23.7493 1.56616 24.5635 2.09679 25.2434 2.77652C25.9234 3.45625 26.4544 4.27018 26.8024 5.16645C27.2029 6.23145 27.4174 7.35645 27.4339 8.49194C27.5179 9.92894 27.5179 10.3984 27.5179 14.0584C27.5179 17.7184 27.4969 18.1984 27.4339 19.6189C27.4115 20.7412 27.1985 21.8515 26.8039 22.9024C26.455 23.7984 25.9236 24.6121 25.2434 25.2917C24.5632 25.9714 23.7492 26.5022 22.8529 26.8504C21.8029 27.2434 20.6944 27.4564 19.5739 27.4789C18.1414 27.5614 17.6719 27.5614 14.0029 27.5614ZM13.9519 2.88195C10.2829 2.88195 9.90193 2.89995 8.46943 2.96445C7.6139 2.97563 6.76663 3.13342 5.96443 3.43095C5.37933 3.65522 4.84771 3.99961 4.40385 4.44192C3.96 4.88422 3.61375 5.41463 3.38743 5.99895C3.08743 6.80895 2.92993 7.66544 2.92093 8.52944C2.84143 9.98294 2.84143 10.3639 2.84143 14.0074C2.84143 17.6074 2.85493 18.0439 2.92093 19.4884C2.93443 20.3434 3.09193 21.1909 3.38743 21.9934C3.84643 23.1739 4.78243 24.1069 5.96593 24.5599C6.76709 24.8593 7.6142 25.0172 8.46943 25.0264C9.92143 25.1104 10.3039 25.1104 13.9519 25.1104C17.6314 25.1104 18.0124 25.0924 19.4329 25.0264C20.2885 25.0161 21.136 24.8583 21.9379 24.5599C22.5199 24.334 23.0485 23.9893 23.4901 23.548C23.9317 23.1067 24.2766 22.5783 24.5029 21.9964C24.8029 21.1864 24.9604 20.3284 24.9694 19.4644H24.9859C25.0504 18.0304 25.0504 17.6479 25.0504 13.9834C25.0504 10.3189 25.0339 9.93344 24.9694 8.50094C24.9559 7.64663 24.7981 6.80074 24.5029 5.99895C24.2771 5.41626 23.9324 4.887 23.4908 4.44487C23.0492 4.00274 22.5203 3.65743 21.9379 3.43095C21.1354 3.13095 20.2879 2.97495 19.4329 2.96445C17.9824 2.88195 17.6029 2.88195 13.9519 2.88195ZM14.0029 20.9359C12.6313 20.9368 11.2902 20.5309 10.1493 19.7696C9.00833 19.0082 8.11881 17.9256 7.59322 16.6586C7.06763 15.3917 6.92958 13.9973 7.19652 12.6519C7.46345 11.3065 8.1234 10.0705 9.09288 9.10014C10.0624 8.12982 11.2978 7.46881 12.643 7.2007C13.9882 6.9326 15.3827 7.06945 16.6501 7.59394C17.9175 8.11844 19.0009 9.00701 19.7632 10.1473C20.5256 11.2876 20.9326 12.6283 20.9329 13.9999C20.9306 15.8377 20.1999 17.5996 18.9009 18.8997C17.602 20.1998 15.8407 20.932 14.0029 20.9359ZM14.0029 9.49695C13.1129 9.49695 12.2429 9.76087 11.5029 10.2553C10.7628 10.7498 10.1861 11.4526 9.84547 12.2749C9.50488 13.0971 9.41576 14.0019 9.58939 14.8749C9.76303 15.7478 10.1916 16.5496 10.8209 17.1789C11.4503 17.8083 12.2521 18.2368 13.125 18.4105C13.9979 18.5841 14.9027 18.495 15.725 18.1544C16.5473 17.8138 17.2501 17.237 17.7445 16.497C18.239 15.757 18.5029 14.887 18.5029 13.9969C18.5002 12.8043 18.0252 11.6613 17.1818 10.818C16.3385 9.97471 15.1955 9.49972 14.0029 9.49695ZM21.2029 8.42744C20.9906 8.42666 20.7805 8.38405 20.5846 8.30206C20.3887 8.22007 20.2109 8.1003 20.0613 7.94959C19.7592 7.64522 19.5903 7.2333 19.5919 6.80445C19.5935 6.37559 19.7654 5.96493 20.0698 5.66281C20.3742 5.36069 20.7861 5.19185 21.2149 5.19345C21.6438 5.19504 22.0544 5.36693 22.3566 5.6713C22.6587 5.97567 22.8275 6.38759 22.8259 6.81644C22.8243 7.2453 22.6525 7.65596 22.3481 7.95808C22.0437 8.2602 21.6318 8.42904 21.2029 8.42744Z" fill="white"/>
</svg>
