<svg width="31" height="31" viewBox="0 0 31 31" fill="none" xmlns="http://www.w3.org/2000/svg">
<path d="M15.5001 6.69997C14.4123 6.69997 13.3489 7.02254 12.4445 7.62689C11.54 8.23124 10.835 9.09022 10.4188 10.0952C10.0025 11.1002 9.89356 12.2061 10.1058 13.273C10.318 14.3399 10.8418 15.3199 11.611 16.0891C12.3802 16.8582 13.3602 17.3821 14.4271 17.5943C15.494 17.8065 16.5999 17.6976 17.6049 17.2813C18.6098 16.865 19.4688 16.1601 20.0732 15.2556C20.6775 14.3511 21.0001 13.2878 21.0001 12.2C21.0001 10.7413 20.4206 9.34234 19.3892 8.31089C18.3577 7.27944 16.9588 6.69997 15.5001 6.69997ZM15.5001 15.5C14.8474 15.5 14.2094 15.3064 13.6667 14.9438C13.124 14.5812 12.7011 14.0658 12.4513 13.4628C12.2015 12.8598 12.1362 12.1963 12.2635 11.5562C12.3908 10.916 12.7051 10.328 13.1666 9.86652C13.6282 9.40501 14.2162 9.09071 14.8563 8.96338C15.4964 8.83605 16.16 8.9014 16.763 9.15117C17.3659 9.40094 17.8813 9.82391 18.2439 10.3666C18.6066 10.9093 18.8001 11.5473 18.8001 12.2C18.7992 13.0749 18.4513 13.9138 17.8326 14.5325C17.2139 15.1511 16.375 15.4991 15.5001 15.5Z" fill="white"/>
<path d="M15.5001 0.0999756C12.4543 0.0999756 9.47684 1.00317 6.94432 2.69534C4.4118 4.38752 2.43795 6.79267 1.27236 9.60665C0.10677 12.4206 -0.198201 15.5171 0.396011 18.5044C0.990223 21.4917 2.45693 24.2357 4.61066 26.3894C6.76439 28.5431 9.50841 30.0098 12.4957 30.6041C15.483 31.1983 18.5794 30.8933 21.3934 29.7277C24.2074 28.5621 26.6126 26.5883 28.3047 24.0558C29.9969 21.5232 30.9001 18.5458 30.9001 15.5C30.8954 11.4171 29.2714 7.50273 26.3844 4.61567C23.4973 1.72862 19.583 0.104634 15.5001 0.0999756ZM8.9001 26.9147V25.4C8.90098 24.525 9.24893 23.6862 9.86762 23.0675C10.4863 22.4488 11.3252 22.1008 12.2001 22.1H18.8001C19.675 22.1008 20.5139 22.4488 21.1326 23.0675C21.7513 23.6862 22.0992 24.525 22.1001 25.4V26.9147C20.0972 28.0842 17.8195 28.7005 15.5001 28.7005C13.1807 28.7005 10.903 28.0842 8.9001 26.9147ZM24.2913 25.3186C24.2694 23.8757 23.6815 22.4993 22.6544 21.4857C21.6273 20.4722 20.2431 19.9027 18.8001 19.9H12.2001C10.7571 19.9027 9.37292 20.4722 8.3458 21.4857C7.31868 22.4993 6.73083 23.8757 6.7089 25.3186C4.71412 23.5374 3.30741 21.1923 2.67502 18.5939C2.04264 15.9955 2.21441 13.2663 3.16761 10.7676C4.1208 8.26899 5.81045 6.11881 8.01281 4.6018C10.2152 3.08479 12.8264 2.2725 15.5007 2.2725C18.1749 2.2725 20.7861 3.08479 22.9885 4.6018C25.1909 6.11881 26.8805 8.26899 27.8337 10.7676C28.7869 13.2663 28.9587 15.9955 28.3263 18.5939C27.6939 21.1923 26.2861 23.5374 24.2913 25.3186Z" fill="white"/>
</svg>
