<svg width="228" height="95" viewBox="0 0 228 95" fill="none" xmlns="http://www.w3.org/2000/svg">
<path d="M116.703 26.0456L78.5993 2.52527M80.2918 2.53635L1.84342 49.577M2 49.0407V93.3143M1 92.3143H228M116.554 25.5203V8.91775M112.832 8.18201H136.199M132 8.91774V35.2052M131.734 34.5255L159.701 52.271" stroke="white" stroke-width="4" stroke-linejoin="round"/>
<path d="M32.7031 77.8132H29.1265V70.2082H23.8286V77.8132H20.2397V60.0397H23.8286V67.2297H29.1265V60.0397H32.7031V77.8132ZM36.1475 70.7819C36.1475 68.78 36.6195 67.2093 37.5635 66.07C38.5075 64.9307 39.8136 64.361 41.4819 64.361C43.1665 64.361 44.4808 64.9307 45.4248 66.07C46.3688 67.2093 46.8408 68.7881 46.8408 70.8063V71.6486C46.8408 73.6587 46.3729 75.2293 45.437 76.3605C44.5011 77.4917 43.1909 78.0573 41.5063 78.0573C39.8136 78.0573 38.4953 77.4917 37.5513 76.3605C36.6154 75.2212 36.1475 73.6424 36.1475 71.6242V70.7819ZM39.6143 71.6486C39.6143 74.0086 40.245 75.1887 41.5063 75.1887C42.6701 75.1887 43.2967 74.204 43.3862 72.2346L43.3984 70.7819C43.3984 69.5775 43.2316 68.6864 42.8979 68.1086C42.5643 67.5226 42.0923 67.2297 41.4819 67.2297C40.896 67.2297 40.4362 67.5226 40.1025 68.1086C39.777 68.6864 39.6143 69.5775 39.6143 70.7819V71.6486ZM53.3735 64.6052L53.4712 65.8259C54.2443 64.8493 55.2656 64.361 56.5352 64.361C57.8535 64.361 58.7853 64.9551 59.3306 66.1432C60.0874 64.9551 61.1657 64.361 62.5654 64.361C64.8766 64.361 66.0607 65.9601 66.1177 69.1584V77.8132H62.6631V69.3781C62.6631 68.6131 62.5573 68.0679 62.3457 67.7424C62.1341 67.4168 61.776 67.2541 61.2715 67.2541C60.6286 67.2541 60.1484 67.6488 59.8311 68.4382L59.8555 68.8532V77.8132H56.4009V69.4025C56.4009 68.6457 56.2992 68.1004 56.0957 67.7668C55.8923 67.425 55.5301 67.2541 55.0093 67.2541C54.4152 67.2541 53.9432 67.5755 53.5933 68.2184V77.8132H50.1387V64.6052H53.3735ZM75.1406 78.0573C73.3665 78.0573 71.9831 77.5283 70.9902 76.4704C69.9974 75.4125 69.501 73.8988 69.501 71.9294V70.8796C69.501 68.7962 69.9567 67.189 70.8682 66.0578C71.7796 64.9266 73.0858 64.361 74.7866 64.361C76.4468 64.361 77.696 64.8941 78.5342 65.9601C79.3724 67.0181 79.7996 68.5887 79.8159 70.6721V72.3688H72.9434C72.9922 73.3454 73.2078 74.0615 73.5903 74.5173C73.9728 74.9649 74.5628 75.1887 75.3604 75.1887C76.516 75.1887 77.4803 74.794 78.2534 74.0046L79.6084 76.092C79.1852 76.6779 78.5708 77.154 77.7651 77.5202C76.9595 77.8783 76.0846 78.0573 75.1406 78.0573ZM72.9678 69.9518H76.4224V69.6345C76.4061 68.8451 76.2759 68.2469 76.0317 67.84C75.7876 67.4331 75.3644 67.2297 74.7622 67.2297C74.16 67.2297 73.7205 67.4453 73.4438 67.8766C73.1753 68.308 73.0166 68.9997 72.9678 69.9518ZM100.73 63.0305H96.3359V77.8132H92.7349V63.0305H88.4136V60.0397H100.73V63.0305ZM109.46 67.9377L108.313 67.84C107.369 67.84 106.73 68.2551 106.396 69.0851V77.8132H102.93V64.6052H106.189L106.287 66.0334C106.832 64.9185 107.585 64.361 108.545 64.361C108.936 64.361 109.253 64.4139 109.497 64.5197L109.46 67.9377ZM118.276 77.8132C118.178 77.6097 118.081 77.2679 117.983 76.7878C117.364 77.6341 116.526 78.0573 115.468 78.0573C114.361 78.0573 113.442 77.6911 112.709 76.9587C111.985 76.2263 111.623 75.2782 111.623 74.1144C111.623 72.731 112.062 71.6608 112.941 70.904C113.828 70.1472 115.102 69.7606 116.762 69.7443H117.812V68.6823C117.812 68.0882 117.71 67.6691 117.507 67.425C117.303 67.1808 117.006 67.0588 116.616 67.0588C115.753 67.0588 115.322 67.5633 115.322 68.5724H111.867C111.867 67.3517 112.323 66.3467 113.234 65.5573C114.154 64.7598 115.314 64.361 116.713 64.361C118.162 64.361 119.281 64.7394 120.07 65.4963C120.868 66.245 121.267 67.3192 121.267 68.7189V74.9323C121.283 76.0716 121.446 76.9627 121.755 77.6057V77.8132H118.276ZM116.237 75.3474C116.62 75.3474 116.945 75.27 117.214 75.1154C117.482 74.9608 117.682 74.7777 117.812 74.5661V71.8195H116.982C116.396 71.8195 115.932 72.0067 115.59 72.381C115.257 72.7554 115.09 73.2559 115.09 73.8825C115.09 74.8591 115.472 75.3474 116.237 75.3474ZM129.032 72.9304L130.705 64.6052H134.306L130.68 77.8132H127.384L123.747 64.6052H127.36L129.032 72.9304ZM142.218 78.0573C140.444 78.0573 139.06 77.5283 138.067 76.4704C137.075 75.4125 136.578 73.8988 136.578 71.9294V70.8796C136.578 68.7962 137.034 67.189 137.945 66.0578C138.857 64.9266 140.163 64.361 141.864 64.361C143.524 64.361 144.773 64.8941 145.611 65.9601C146.45 67.0181 146.877 68.5887 146.893 70.6721V72.3688H140.021C140.069 73.3454 140.285 74.0615 140.667 74.5173C141.05 74.9649 141.64 75.1887 142.438 75.1887C143.593 75.1887 144.557 74.794 145.331 74.0046L146.686 76.092C146.262 76.6779 145.648 77.154 144.842 77.5202C144.037 77.8783 143.162 78.0573 142.218 78.0573ZM140.045 69.9518H143.5V69.6345C143.483 68.8451 143.353 68.2469 143.109 67.84C142.865 67.4331 142.442 67.2297 141.839 67.2297C141.237 67.2297 140.798 67.4453 140.521 67.8766C140.252 68.308 140.094 68.9997 140.045 69.9518ZM153.597 77.8132H150.13V59.0632H153.597V77.8132Z" fill="white"/>
</svg>
