<svg width="167" height="53" viewBox="0 0 167 53" fill="none" xmlns="http://www.w3.org/2000/svg">
<path d="M86.3684 16.8758C86.2731 24.2294 93.0634 28.3327 98.1784 30.7726C103.434 33.2758 105.199 34.8811 105.178 37.1199C105.139 40.5457 100.986 42.0578 97.1001 42.1166C90.3203 42.2194 86.3781 40.3248 83.2443 38.8919L80.8019 50.0787C83.9462 51.4969 89.7684 52.7338 95.8058 52.7881C109.978 52.7881 119.25 45.9402 119.3 35.323C119.355 21.8482 100.259 21.1024 100.39 15.0795C100.435 13.2533 102.215 11.3044 106.116 10.8089C108.047 10.5586 113.377 10.367 119.421 13.0911L121.793 2.26759C118.543 1.10925 114.366 8.15965e-05 109.165 8.15965e-05C95.826 8.15965e-05 86.444 6.94117 86.3684 16.8758V16.8758ZM144.584 0.93237C141.996 0.93237 139.816 2.40998 138.842 4.67749L118.598 51.9931H132.76L135.578 44.3694H152.883L154.518 51.9931H167L156.108 0.93237H144.584V0.93237ZM146.565 14.7258L150.652 33.8997H139.459L146.565 14.7258V14.7258ZM69.198 0.933008L58.0351 51.9924H71.5301L82.6878 0.931732H69.198V0.933008ZM49.2343 0.931732L35.1881 35.6863L29.5062 6.13595C28.8395 2.83718 26.2066 0.93237 23.2828 0.93237H0.321605L0 2.41509C4.71384 3.41635 10.0696 5.03125 13.3143 6.75918C15.3001 7.81471 15.8663 8.73742 16.5186 11.2457L27.2804 51.9931H41.5413L63.4052 0.93237H49.2343" fill="url(#paint0_linear_268_633)"/>
<defs>
<linearGradient id="paint0_linear_268_633" x1="76.7766" y1="53.847" x2="78.2723" y2="-0.368842" gradientUnits="userSpaceOnUse">
<stop stop-color="#222357"/>
<stop offset="1" stop-color="#254AA5"/>
</linearGradient>
</defs>
</svg>
