<svg width="133" height="103" viewBox="0 0 133 103" fill="none" xmlns="http://www.w3.org/2000/svg">
<path d="M24.1806 102.488V95.671C24.1806 93.0572 22.5835 91.3533 19.8461 91.3533C18.4777 91.3533 16.9949 91.8078 15.9683 93.2849C15.1703 92.035 14.03 91.3533 12.3191 91.3533C11.1783 91.3533 10.0384 91.6939 9.12558 92.9439V91.5805H6.73055V102.488H9.12558V96.466C9.12558 94.5349 10.1522 93.6255 11.7492 93.6255C13.3452 93.6255 14.1443 94.6483 14.1443 96.466V102.488H16.5393V96.466C16.5393 94.5349 17.6791 93.6255 19.1619 93.6255C20.7589 93.6255 21.5569 94.6483 21.5569 96.466V102.488H24.1806V102.488ZM59.6495 91.5805H55.7722V88.2856H53.3772V91.5805H51.2102V93.7389H53.3767V98.7388C53.3767 101.239 54.4033 102.715 57.1407 102.715C58.1673 102.715 59.3071 102.375 60.1062 101.92L59.4214 99.8749C58.7372 100.329 57.9392 100.443 57.3687 100.443C56.2284 100.443 55.7722 99.7615 55.7722 98.6249V93.7389H59.6495V91.5805V91.5805ZM79.9507 91.3528C78.5822 91.3528 77.6699 92.035 77.0995 92.9439V91.5805H74.7045V102.488H77.0995V96.3527C77.0995 94.5349 77.8975 93.5122 79.3802 93.5122C79.8364 93.5122 80.4068 93.626 80.863 93.7394L81.5472 91.4672C81.0911 91.3533 80.4068 91.3533 79.9507 91.3533V91.3528ZM49.2713 92.4894C48.1304 91.6939 46.5339 91.3533 44.8231 91.3533C42.0862 91.3533 40.2616 92.7166 40.2616 94.8755C40.2616 96.6938 41.6301 97.716 44.0251 98.0571L45.1655 98.171C46.4201 98.3977 47.1044 98.7388 47.1044 99.3071C47.1044 100.102 46.1921 100.67 44.595 100.67C42.9985 100.67 41.7438 100.102 40.9453 99.5343L39.8049 101.352C41.0596 102.261 42.7704 102.715 44.4807 102.715C47.6743 102.715 49.4994 101.239 49.4994 99.1932C49.4994 97.2616 48.0167 96.2388 45.7354 95.8983L44.595 95.7844C43.5684 95.6705 42.7704 95.4438 42.7704 94.7621C42.7704 93.9666 43.5684 93.5122 44.8231 93.5122C46.1921 93.5122 47.5605 94.08 48.2447 94.4211L49.2713 92.4894V92.4894ZM112.911 91.3533C111.542 91.3533 110.63 92.035 110.06 92.9439V91.5805H107.665V102.488H110.06V96.3527C110.06 94.5349 110.858 93.5122 112.34 93.5122C112.797 93.5122 113.367 93.626 113.824 93.7394L114.508 91.4672C114.052 91.3533 113.367 91.3533 112.911 91.3533V91.3533ZM82.3457 97.0344C82.3457 100.329 84.6265 102.715 88.1624 102.715C89.7589 102.715 90.8993 102.375 92.0397 101.466L90.8993 99.5343C89.987 100.216 89.0747 100.557 88.0481 100.557C86.1092 100.557 84.7408 99.1932 84.7408 97.0344C84.7408 94.9894 86.1092 93.6255 88.0481 93.5122C89.0747 93.5122 89.987 93.8527 90.8993 94.5349L92.0397 92.6033C90.8993 91.6939 89.7589 91.3533 88.1624 91.3533C84.6265 91.3533 82.3457 93.7394 82.3457 97.0344ZM104.472 97.0344V91.5805H102.076V92.9439C101.278 91.9216 100.138 91.3533 98.6549 91.3533C95.5756 91.3533 93.1805 93.7394 93.1805 97.0344C93.1805 100.329 95.5756 102.715 98.6549 102.715C100.251 102.715 101.392 102.148 102.076 101.125V102.488H104.472V97.0344V97.0344ZM95.6894 97.0344C95.6894 95.1027 96.944 93.5122 98.9967 93.5122C100.936 93.5122 102.305 94.9894 102.305 97.0344C102.305 98.966 100.936 100.557 98.9967 100.557C96.944 100.443 95.6894 98.966 95.6894 97.0344V97.0344ZM67.0632 91.3533C63.8696 91.3533 61.5884 93.6255 61.5884 97.0344C61.5884 100.443 63.8691 102.715 67.177 102.715C68.7735 102.715 70.3705 102.261 71.6252 101.239L70.4843 99.5343C69.572 100.216 68.4316 100.67 67.2913 100.67C65.8085 100.67 64.3258 99.9888 63.9834 98.0566H72.0813V97.1482C72.1956 93.6255 70.1425 91.3533 67.0627 91.3533H67.0632ZM67.0632 93.3983C68.5454 93.3983 69.5725 94.3077 69.8001 96.0121H64.0977C64.3258 94.5349 65.3524 93.3983 67.0632 93.3983ZM126.483 97.0344V87.2628H124.088V92.9439C123.289 91.9216 122.149 91.3533 120.666 91.3533C117.587 91.3533 115.192 93.7394 115.192 97.0344C115.192 100.329 117.587 102.715 120.666 102.715C122.263 102.715 123.404 102.148 124.088 101.125V102.488H126.483V97.0344V97.0344ZM117.701 97.0344C117.701 95.1027 118.956 93.5122 121.009 93.5122C122.948 93.5122 124.316 94.9894 124.316 97.0344C124.316 98.966 122.948 100.557 121.009 100.557C118.956 100.443 117.701 98.966 117.701 97.0344V97.0344ZM37.638 97.0344V91.5805H35.2429V92.9439C34.4444 91.9216 33.3041 91.3533 31.8213 91.3533C28.742 91.3533 26.347 93.7394 26.347 97.0344C26.347 100.329 28.742 102.715 31.8213 102.715C33.4183 102.715 34.5587 102.148 35.2429 101.125V102.488H37.638V97.0344V97.0344ZM28.742 97.0344C28.742 95.1027 29.9967 93.5122 32.0494 93.5122C33.9883 93.5122 35.3572 94.9894 35.3572 97.0344C35.3572 98.966 33.9883 100.557 32.0494 100.557C29.9967 100.443 28.742 98.966 28.742 97.0344V97.0344Z" fill="black"/>
<path d="M48.4697 8.74878H84.3953V73.0596H48.4697V8.74878Z" fill="#FF5F00"/>
<path d="M50.7525 40.9045C50.7525 27.838 56.911 16.2481 66.3769 8.74879C59.4204 3.29497 50.6387 0 41.0586 0C18.3618 0 0 18.2931 0 40.9045C0 63.5153 18.3618 81.8089 41.058 81.8089C50.6382 81.8089 59.4198 78.514 66.3769 73.0596C56.911 65.6742 50.7525 53.971 50.7525 40.9045V40.9045Z" fill="#EB001B"/>
<path d="M132.87 40.9045C132.87 63.5153 114.509 81.8089 91.8124 81.8089C82.2323 81.8089 73.4506 78.514 66.4936 73.0596C76.0737 65.5608 82.1185 53.971 82.1185 40.9045C82.1185 27.838 75.9594 16.2481 66.4936 8.74879C73.4501 3.29497 82.2323 0 91.8124 0C114.509 0 132.871 18.407 132.871 40.9045H132.87Z" fill="#F79E1B"/>
</svg>
