<svg width="134" height="106" viewBox="0 0 134 106" fill="none" xmlns="http://www.w3.org/2000/svg">
<g clip-path="url(#clip0_268_640)">
<path d="M85.1171 75.2734H48.8843V9.00903H85.1177L85.1171 75.2734Z" fill="#6C6BBD"/>
<path d="M51.1833 42.1422C51.1833 28.7004 57.3677 16.7267 66.999 9.01053C59.9561 3.36803 51.0666 0 41.407 0C18.5381 0 0 18.8675 0 42.1422C0 65.4174 18.5381 84.2849 41.407 84.2849C51.0671 84.2849 59.9561 80.9169 66.999 75.2744C57.3677 67.5582 51.1833 55.5845 51.1833 42.1427" fill="#D32011"/>
<path d="M134.002 42.1422C134.002 65.4174 115.464 84.2849 92.5946 84.2849C82.9346 84.2849 74.0456 80.9169 67.0001 75.2744C76.634 67.5582 82.8184 55.5845 82.8184 42.1427C82.8184 28.7004 76.634 16.7267 67.0001 9.01053C74.0456 3.36803 82.9351 0 92.5946 0C115.464 0 134.002 18.8675 134.002 42.1422Z" fill="#0099DF"/>
<path d="M97.3792 93.9974C97.8607 93.9974 98.5532 94.0912 99.0824 94.3027L98.3454 96.5963C97.8398 96.3843 97.3341 96.3151 96.85 96.3151C95.2859 96.3151 94.5039 97.3436 94.5039 99.1925V105.467H92.1108V94.2787H94.4804V95.637C95.1017 94.6537 95.9994 93.9974 97.3792 93.9974ZM88.5378 96.5026H84.6277V101.558C84.6277 102.681 85.0177 103.431 86.2158 103.431C86.8371 103.431 87.6186 103.219 88.33 102.799L89.0193 104.88C88.2614 105.419 87.0659 105.749 86.031 105.749C83.2008 105.749 82.2136 104.203 82.2136 101.604V96.5026H79.9811V94.2787H82.2136V90.884H84.6277V94.2787H88.5378V96.5026V96.5026ZM57.9198 98.8894C58.1753 97.2739 59.1394 96.1728 60.8427 96.1728C62.3827 96.1728 63.3725 97.1561 63.6253 98.8894H57.9198ZM66.1111 99.8727C66.087 96.3843 63.9702 93.9974 60.8872 93.9974C57.6675 93.9974 55.4136 96.3843 55.4136 99.8727C55.4136 103.428 57.7596 105.746 61.0505 105.746C62.7067 105.746 64.2231 105.325 65.5578 104.179L64.3838 102.375C63.4651 103.126 62.2905 103.546 61.1876 103.546C59.6472 103.546 58.2438 102.82 57.8989 100.808H66.0635C66.087 100.502 66.1106 100.2 66.1106 99.8727H66.1111ZM76.6217 97.1348C75.9554 96.7114 74.5992 96.1728 73.1958 96.1728C71.8846 96.1728 71.1026 96.6656 71.1026 97.4859C71.1026 98.2332 71.9296 98.4447 72.9645 98.5842L74.0914 98.7477C76.4846 99.1014 77.9324 100.13 77.9324 102.097C77.9324 104.227 76.092 105.749 72.9194 105.749C71.1241 105.749 69.4679 105.28 68.1562 104.296L69.2836 102.4C70.0892 103.032 71.2874 103.57 72.943 103.57C74.5756 103.57 75.4497 103.08 75.4497 102.212C75.4497 101.582 74.8284 101.229 73.5172 101.044L72.3902 100.881C69.9285 100.527 68.5938 99.404 68.5938 97.5796C68.5938 95.3557 70.3891 93.9974 73.1723 93.9974C74.9205 93.9974 76.5081 94.3969 77.656 95.1682L76.6212 97.1348H76.6217ZM106.123 96.3092C105.631 96.3092 105.175 96.3976 104.751 96.5718C104.341 96.741 103.968 96.9926 103.656 97.3117C103.341 97.6381 103.094 98.0251 102.929 98.45C102.753 98.8921 102.666 99.38 102.666 99.9105C102.666 100.443 102.753 100.928 102.929 101.371C103.106 101.813 103.348 102.193 103.656 102.509C103.968 102.828 104.341 103.08 104.751 103.249C105.175 103.426 105.631 103.511 106.123 103.511C106.615 103.511 107.073 103.426 107.494 103.249C107.906 103.08 108.281 102.829 108.595 102.509C108.908 102.193 109.151 101.813 109.33 101.371C109.506 100.928 109.593 100.444 109.593 99.9105C109.593 99.38 109.506 98.8921 109.33 98.45C109.151 98.0079 108.908 97.6275 108.595 97.3117C108.281 96.992 107.907 96.7403 107.495 96.5718C107.059 96.3944 106.593 96.3052 106.123 96.3092H106.123ZM106.123 93.9974C106.976 93.9974 107.766 94.1471 108.492 94.4502C109.219 94.7501 109.848 95.1656 110.378 95.6935C110.911 96.2257 111.335 96.8615 111.623 97.5631C111.923 98.2843 112.073 99.0663 112.073 99.9105C112.073 100.754 111.923 101.537 111.623 102.257C111.335 102.96 110.911 103.597 110.377 104.13C109.848 104.658 109.219 105.071 108.493 105.374C107.765 105.673 106.976 105.824 106.123 105.824C105.269 105.824 104.48 105.673 103.753 105.374C103.027 105.071 102.403 104.658 101.876 104.13C101.345 103.595 100.924 102.959 100.635 102.257C100.336 101.537 100.185 100.754 100.185 99.9105C100.185 99.0663 100.336 98.2843 100.635 97.5636C100.924 96.8631 101.345 96.2275 101.876 95.6935C102.415 95.1566 103.053 94.734 103.753 94.4502C104.48 94.1471 105.269 93.9974 106.123 93.9974ZM43.9451 99.8727C43.9451 97.9061 45.2118 96.2906 47.281 96.2906C49.2585 96.2906 50.5933 97.8369 50.5933 99.8727C50.5933 101.909 49.2585 103.452 47.281 103.452C45.2118 103.452 43.9451 101.839 43.9451 99.8727ZM52.8472 99.8727V94.2787H50.4561V95.637C49.6956 94.6297 48.5477 93.9974 46.9836 93.9974C43.9006 93.9974 41.486 96.4541 41.486 99.8727C41.486 103.289 43.9006 105.749 46.9836 105.749C48.5477 105.749 49.695 105.116 50.4561 104.109V105.467H52.8472V99.8727ZM39.3687 105.467V98.4447C39.3687 95.8005 37.7125 94.0214 35.0456 93.9969C33.6423 93.973 32.1913 94.4177 31.1805 95.988C30.4221 94.7474 29.2245 93.9974 27.5447 93.9974C26.3728 93.9974 25.2223 94.3485 24.3246 95.6583V94.2787H21.934V105.467H24.3481V99.265C24.3481 97.3223 25.4065 96.2906 27.0386 96.2906C28.6267 96.2906 29.4323 97.3436 29.4323 99.2405V105.467H31.8469V99.265C31.8469 97.3223 32.9524 96.2906 34.5373 96.2906C36.1726 96.2906 36.9546 97.3436 36.9546 99.2405V105.467H39.3687V105.467Z" fill="#110F0D"/>
</g>
<defs>
<clipPath id="clip0_268_640">
<rect width="134" height="106" fill="white"/>
</clipPath>
</defs>
</svg>
