<svg width="85" height="85" viewBox="0 0 85 85" fill="none" xmlns="http://www.w3.org/2000/svg">
<path d="M52.8733 44.8882L68.334 44.7583C67.8734 48.0112 66.7395 51.1322 65.0047 53.9221C63.2698 56.7119 60.9722 59.1093 58.2585 60.9611L53.5864 64.1504L56.5104 68.4835L61.1825 65.2941C65.1154 62.6253 68.3286 59.0269 70.5371 54.8183C72.7456 50.6096 73.8811 45.9209 73.8427 41.1681L73.6961 23.7125C73.6844 22.3202 73.12 20.9895 72.1272 20.0133C71.1344 19.037 69.7945 18.4951 68.4021 18.5068L52.6527 18.6392C51.2603 18.6509 49.9297 19.2152 48.9534 20.208C47.9772 21.2008 47.4353 22.5408 47.447 23.9331L47.5793 39.6825C47.591 41.0749 48.1554 42.4055 49.1482 43.3818C50.141 44.3581 51.4809 44.8999 52.8733 44.8882Z" fill="#588349"/>
<path d="M16.1247 45.1968L31.5854 45.0669C31.1249 48.3197 29.991 51.4408 28.2561 54.2306C26.5213 57.0205 24.2237 59.4179 21.51 61.2696L16.8379 64.459L19.7356 68.7923L24.434 65.6027C28.3669 62.9339 31.5801 59.3355 33.7886 55.1269C35.9971 50.9182 37.1326 46.2295 37.0942 41.4767L36.9475 24.0211C36.9358 22.6288 36.3715 21.2981 35.3787 20.3218C34.3859 19.3456 33.0459 18.8037 31.6536 18.8154L15.9041 18.9478C14.5118 18.9595 13.1811 19.5238 12.2049 20.5166C11.2286 21.5094 10.6867 22.8493 10.6984 24.2417L10.8308 39.9911C10.8425 41.3835 11.4068 42.7141 12.3996 43.6904C13.3924 44.6666 14.7324 45.2085 16.1247 45.1968Z" fill="#588349"/>
</svg>
