<svg width="84" height="84" viewBox="0 0 84 84" fill="none" xmlns="http://www.w3.org/2000/svg">
<path d="M31.5 39.375H16.0388C16.5266 36.1261 17.6867 33.0148 19.4449 30.2396C21.2031 27.4644 23.5209 25.0864 26.25 23.2575L30.9487 20.1075L28.0612 15.75L23.3625 18.9C19.4074 21.5357 16.164 25.107 13.9202 29.2969C11.6764 33.4868 10.5016 38.1658 10.5 42.9188V60.375C10.5 61.7674 11.0531 63.1027 12.0377 64.0873C13.0223 65.0719 14.3576 65.625 15.75 65.625H31.5C32.8924 65.625 34.2277 65.0719 35.2123 64.0873C36.1969 63.1027 36.75 61.7674 36.75 60.375V44.625C36.75 43.2326 36.1969 41.8973 35.2123 40.9127C34.2277 39.9281 32.8924 39.375 31.5 39.375Z" fill="#588349"/>
<path d="M68.25 39.375H52.7888C53.2766 36.1261 54.4367 33.0148 56.1949 30.2396C57.9531 27.4644 60.2709 25.0864 63 23.2575L67.6988 20.1075L64.8375 15.75L60.1125 18.9C56.1574 21.5357 52.914 25.107 50.6702 29.2969C48.4264 33.4868 47.2516 38.1658 47.25 42.9188V60.375C47.25 61.7674 47.8031 63.1027 48.7877 64.0873C49.7723 65.0719 51.1076 65.625 52.5 65.625H68.25C69.6424 65.625 70.9777 65.0719 71.9623 64.0873C72.9469 63.1027 73.5 61.7674 73.5 60.375V44.625C73.5 43.2326 72.9469 41.8973 71.9623 40.9127C70.9777 39.9281 69.6424 39.375 68.25 39.375Z" fill="#588349"/>
</svg>
