<svg width="30" height="30" viewBox="0 0 30 30" fill="none" xmlns="http://www.w3.org/2000/svg">
<path d="M5.92012 0.5625C4.5009 0.56803 3.14138 1.13427 2.13782 2.13782C1.13427 3.14138 0.56803 4.5009 0.5625 5.92012V24.0799C0.56803 25.4991 1.13427 26.8586 2.13782 27.8622C3.14138 28.8657 4.5009 29.432 5.92012 29.4375H24.0799C25.4991 29.432 26.8586 28.8657 27.8622 27.8622C28.8657 26.8586 29.432 25.4991 29.4375 24.0799V5.92012C29.432 4.5009 28.8657 3.14138 27.8622 2.13782C26.8586 1.13427 25.4991 0.56803 24.0799 0.5625H5.92012ZM5.92012 3.1875H24.0799C25.6024 3.1875 26.8125 4.39762 26.8125 5.92012V24.0799C26.8125 25.6024 25.6024 26.8125 24.0799 26.8125H5.92012C5.56064 26.8148 5.20428 26.7456 4.87172 26.6091C4.53916 26.4726 4.23702 26.2714 3.98282 26.0172C3.72862 25.763 3.52742 25.4608 3.39089 25.1283C3.25437 24.7957 3.18523 24.4394 3.1875 24.0799V5.92012C3.1875 4.39762 4.39762 3.1875 5.92012 3.1875ZM14.6312 10.0519C13.6665 10.0427 12.8462 10.0519 12.3855 10.2776C12.0771 10.4273 11.8421 10.7646 11.9852 10.7803C12.165 10.8066 12.5693 10.8932 12.7858 11.1859C13.0614 11.5599 13.0522 12.4065 13.0522 12.4065C13.0522 12.4065 13.2058 14.7336 12.6769 15.0263C12.3133 15.2258 11.8159 14.8202 10.7396 12.9696C10.191 12.0167 9.77625 10.9654 9.77625 10.9654C9.77625 10.9654 9.6975 10.7698 9.55575 10.6674C9.38119 10.5401 9.13969 10.4981 9.13969 10.4981L6.57113 10.5139C6.57113 10.5139 6.18656 10.5296 6.04875 10.6937C5.92013 10.8472 6.03825 11.1491 6.03825 11.1491C6.03825 11.1491 8.04769 15.8505 10.3236 18.2196C12.4104 20.3944 14.7795 20.25 14.7795 20.25H15.8558C15.8558 20.25 16.1786 20.2146 16.3427 20.04C16.4976 19.8759 16.4923 19.5675 16.4923 19.5675C16.4923 19.5675 16.4713 18.1277 17.1381 17.9124C17.7996 17.7064 18.6396 19.3063 19.5373 19.9219C20.2198 20.3878 20.7369 20.2854 20.7369 20.2854L23.1375 20.25C23.1375 20.25 24.3883 20.1726 23.7938 19.1829C23.7478 19.1068 23.4499 18.4558 22.0153 17.1223C20.5072 15.7284 20.7081 15.9542 22.5219 13.5392C23.6244 12.0679 24.0654 11.1701 23.9263 10.7803C23.7951 10.4167 22.9839 10.5139 22.9839 10.5139L20.2815 10.5296C20.2815 10.5296 20.082 10.5034 19.9337 10.5913C19.8317 10.667 19.7505 10.7673 19.6974 10.8827C19.6974 10.8827 19.2669 12.0206 18.6973 12.9906C17.4977 15.0302 17.0108 15.1431 16.8165 15.0157C16.3598 14.7178 16.4726 13.8253 16.4726 13.1953C16.4726 11.2108 16.7745 10.3905 15.8886 10.1766C15.5959 10.1044 15.3806 10.0584 14.6325 10.0519H14.6312Z" fill="white"/>
</svg>
